<?xml version="1.0" encoding="utf-8"?>
<!-- Generator: Adobe Illustrator 16.0.4, SVG Export Plug-In . SVG Version: 6.00 Build 0)  -->
<!DOCTYPE svg PUBLIC "-//W3C//DTD SVG 1.1//EN" "http://www.w3.org/Graphics/SVG/1.1/DTD/svg11.dtd">
<svg version="1.1" id="Layer_1" xmlns="http://www.w3.org/2000/svg" xmlns:xlink="http://www.w3.org/1999/xlink" x="0px" y="0px"
	 width="20px" height="20px" viewBox="0 0 20 20" enable-background="new 0 0 20 20" xml:space="preserve">
<g>
	<g>
		<path fill-rule="evenodd" clip-rule="evenodd" fill="#21B4DB" d="M10.935,8.333c0.108,0,0.203,0,0.299,0
			c2.614,0,5.227,0.002,7.84-0.002c0.362,0,0.675,0.098,0.817,0.448c0.065,0.163,0.081,0.383,0.03,0.55
			c-0.791,2.617-1.598,5.229-2.398,7.842c-0.041,0.135-0.073,0.273-0.106,0.408c-0.086,0.348-0.347,0.576-0.704,0.607
			c-0.103,0.01-0.207,0.008-0.311,0.008c-4.234,0-8.469,0-12.703,0c-0.822,0-0.931-0.088-1.17-0.867
			c-0.481-1.568-0.969-3.135-1.455-4.701C0.729,11.519,0.4,10.406,0.034,9.306C-0.118,8.85,0.271,8.375,0.659,8.346
			C0.77,8.338,0.881,8.334,0.991,8.334c2.584-0.001,5.167-0.001,7.751-0.001c0.095,0,0.19,0,0.299,0
			c0.006-0.084,0.014-0.147,0.014-0.212C9.057,7.1,9.053,6.077,9.059,5.056c0-0.132-0.041-0.211-0.143-0.296
			C8.159,4.134,8.099,3.026,8.776,2.317c0.657-0.686,1.768-0.684,2.422,0.004c0.675,0.712,0.606,1.811-0.146,2.449
			c-0.063,0.054-0.132,0.148-0.133,0.226c-0.008,1.08-0.004,2.162-0.004,3.242C10.915,8.26,10.924,8.281,10.935,8.333z"/>
	</g>
</g>
</svg>
