<?xml version="1.0" encoding="utf-8"?>
<!-- Generator: Adobe Illustrator 16.0.4, SVG Export Plug-In . SVG Version: 6.00 Build 0)  -->
<!DOCTYPE svg PUBLIC "-//W3C//DTD SVG 1.1//EN" "http://www.w3.org/Graphics/SVG/1.1/DTD/svg11.dtd">
<svg version="1.1" id="Layer_1" xmlns="http://www.w3.org/2000/svg" xmlns:xlink="http://www.w3.org/1999/xlink" x="0px" y="0px"
	 width="51px" height="51px" viewBox="0 0 51 51" enable-background="new 0 0 51 51" xml:space="preserve">
<rect fill="#21B4DB" width="51" height="51"/>
<g>
	<path fill="#FFFFFF" d="M24.512,29.469l-5.804-7.347c-0.078-0.104-0.132-0.235-0.132-0.418c0-0.392,0.314-0.705,0.707-0.705
		c0.209,0,0.419,0.078,0.574,0.288l5.257,6.798l5.254-6.798c0.157-0.21,0.366-0.288,0.576-0.288c0.393,0,0.704,0.313,0.704,0.705
		c0,0.183-0.051,0.313-0.129,0.418l-5.804,7.347c-0.132,0.185-0.314,0.341-0.602,0.341C24.826,29.81,24.644,29.653,24.512,29.469z"
		/>
</g>
</svg>
