<?xml version="1.0" encoding="utf-8"?>
<!-- Generator: Adobe Illustrator 16.0.0, SVG Export Plug-In . SVG Version: 6.00 Build 0)  -->
<!DOCTYPE svg PUBLIC "-//W3C//DTD SVG 1.1//EN" "http://www.w3.org/Graphics/SVG/1.1/DTD/svg11.dtd">
<svg version="1.1" id="Layer_1" xmlns="http://www.w3.org/2000/svg" xmlns:xlink="http://www.w3.org/1999/xlink" x="0px" y="0px"
	 width="33px" height="45px" viewBox="0 0 33 45" enable-background="new 0 0 33 45" xml:space="preserve">
<polygon fill="#007233" points="33,45 -0.08,45 -0.08,-0.021 24.3,-0.021 33,9.439 "/>
<polygon fill="#24EA99" points="33,9.46 24.3,9.46 24.3,0 "/>
<path fill="#FFFFFF" d="M15,40.646C15,40.841,14.841,41,14.646,41H4.354C4.159,41,4,40.841,4,40.646v-5.291
	C4,35.159,4.159,35,4.354,35h10.291C14.841,35,15,35.159,15,35.354V40.646z"/>
<path fill="#FFFFFF" d="M29,40.646C29,40.841,28.841,41,28.646,41H18.354C18.159,41,18,40.841,18,40.646v-5.291
	C18,35.159,18.159,35,18.354,35h10.291C28.841,35,29,35.159,29,35.354V40.646z"/>
<path fill="#FFFFFF" d="M15,32.646C15,32.841,14.841,33,14.646,33H4.354C4.159,33,4,32.841,4,32.646v-5.291
	C4,27.159,4.159,27,4.354,27h10.291C14.841,27,15,27.159,15,27.354V32.646z"/>
<path fill="#FFFFFF" d="M29,32.646C29,32.841,28.841,33,28.646,33H18.354C18.159,33,18,32.841,18,32.646v-5.291
	C18,27.159,18.159,27,18.354,27h10.291C28.841,27,29,27.159,29,27.354V32.646z"/>
<rect x="5.246" y="8.533" fill="none" width="14.103" height="14.103"/>
<text transform="matrix(1 0 0 1 5.2456 21.8804)" fill="#FFFFFF" font-family="'CallunaSans-Regular'" font-size="18.6943">X</text>
</svg>
