<?xml version="1.0" encoding="utf-8"?>
<!-- Generator: Adobe Illustrator 18.0.0, SVG Export Plug-In . SVG Version: 6.00 Build 0)  -->
<!DOCTYPE svg PUBLIC "-//W3C//DTD SVG 1.1//EN" "http://www.w3.org/Graphics/SVG/1.1/DTD/svg11.dtd">
<svg version="1.1" id="Layer_1" xmlns="http://www.w3.org/2000/svg" xmlns:xlink="http://www.w3.org/1999/xlink" x="0px" y="0px"
	 width="15px" height="15px" viewBox="8.5 8.5 15 15" enable-background="new 8.5 8.5 15 15" xml:space="preserve">
<path fill="#00B5D7" d="M10.5,19.5c-1.1,0-2,0.9-2,2c0,1.1,0.9,2,2,2c1.1,0,2-0.9,2-2C12.5,20.4,11.6,19.5,10.5,19.5z M8.5,13.6v2.9
	c1.9,0,3.6,0.7,5,2.1c1.3,1.3,2.1,3.1,2.1,5h2.9C18.4,18,14,13.6,8.5,13.6z M8.5,8.5v2.9c6.7,0,12.1,5.4,12.1,12.1h2.9
	C23.5,15.2,16.8,8.5,8.5,8.5z"/>
</svg>
