<?xml version="1.0" encoding="utf-8"?>
<!-- Generator: Adobe Illustrator 16.0.4, SVG Export Plug-In . SVG Version: 6.00 Build 0)  -->
<!DOCTYPE svg PUBLIC "-//W3C//DTD SVG 1.1//EN" "http://www.w3.org/Graphics/SVG/1.1/DTD/svg11.dtd">
<svg version="1.1" id="Layer_1" xmlns="http://www.w3.org/2000/svg" xmlns:xlink="http://www.w3.org/1999/xlink" x="0px" y="0px"
	 width="20px" height="20px" viewBox="0 0 20 20" enable-background="new 0 0 20 20" xml:space="preserve">
<g>
	<g>
		<path fill-rule="evenodd" clip-rule="evenodd" fill="#21B4DB" d="M2.399,18.371c0-2.203,0-4.383,0-6.589c-0.786,0-1.542,0-2.399,0
			C3.377,8.337,6.689,4.958,9.96,1.621c1.235,1.166,2.456,2.316,3.651,3.443c0-0.495,0-1.073,0-1.681c0.958,0,1.878,0,2.841,0
			c0,0.116,0,0.229,0,0.344c0,1.37-0.005,2.742,0.008,4.111c0.001,0.15,0.075,0.334,0.181,0.443c1.032,1.072,2.077,2.13,3.119,3.194
			c0.077,0.08,0.149,0.166,0.269,0.298c-0.817,0-1.572,0-2.367,0c0,2.218,0,4.403,0,6.606c-2.087,0-4.129,0-6.209,0
			c0-1.777,0-3.559,0-5.366c-0.951,0-1.864,0-2.814,0c0,1.775,0,3.558,0,5.358C6.551,18.371,4.501,18.371,2.399,18.371z"/>
	</g>
</g>
</svg>
