<?xml version="1.0" encoding="utf-8"?>
<!-- Generator: Adobe Illustrator 16.0.4, SVG Export Plug-In . SVG Version: 6.00 Build 0)  -->
<!DOCTYPE svg PUBLIC "-//W3C//DTD SVG 1.1//EN" "http://www.w3.org/Graphics/SVG/1.1/DTD/svg11.dtd">
<svg version="1.1" id="Layer_1" xmlns="http://www.w3.org/2000/svg" xmlns:xlink="http://www.w3.org/1999/xlink" x="0px" y="0px"
	 width="75px" height="75px" viewBox="14.5 14.5 75 75" enable-background="new 14.5 14.5 75 75" xml:space="preserve">
<circle fill="#2A3740" cx="52.199" cy="51.75" r="35"/>
<path fill="#FF5E48" d="M54.039,58.24c0.158-0.315,0.161-0.669,0.161-1.047v-1.198c3.571-1.017,6.021-4.184,6.021-7.939
	c0-4.576-3.66-8.285-8.234-8.285c-4.577,0-8.142,3.709-8.142,8.285c0,3.756,2.499,6.923,6.07,7.939v1.198
	c0,0.378-0.023,0.729,0.135,1.047c-3.756,0.409-6.893,2.363-8.255,4.333c0.6,0.378,0.853,1.498,0.851,2.213h18.801
	c0.106-0.715,0.436-1.585,1.119-1.738C61.396,60.846,58.092,58.683,54.039,58.24z"/>
<g>
	<path fill="#FF5E48" d="M66.326,59.026c0.089-0.174,0.017-0.369,0.017-0.58v-0.664c2.143-0.564,3.412-2.322,3.412-4.405
		c0-2.539-1.995-4.596-4.532-4.596c-2.54,0-4.811,2.057-4.811,4.596c0,2.083,1.645,3.841,3.073,4.405v0.664
		c0,0.211,0.299,0.406,0.387,0.58c-2.083,0.228-3.668,1.304-4.423,2.396c0.332,0.211,0.628,1.22,0.628,1.22h10.43
		c0.061,0,0.207-0.872,0.586-0.956C70.445,60.465,68.575,59.273,66.326,59.026z"/>
	<path fill="#FF5E48" d="M39.101,59.026c0.088-0.174,0.099-0.369,0.099-0.58v-0.664c1.429-0.564,3.33-2.322,3.33-4.405
		c0-2.539-2.037-4.596-4.575-4.596c-2.539,0-4.747,2.057-4.747,4.596c0,2.083,1.708,3.841,3.136,4.405v0.664
		c0,0.211,0.216,0.406,0.304,0.58c-2.084,0.228-3.711,1.304-4.466,2.396c0.333,0.211,0.586,1.22,0.585,1.22h10.431
		c0.06,0,0.248-0.872,0.627-0.956C43.175,60.465,41.348,59.273,39.101,59.026z"/>
</g>
</svg>
