<?xml version="1.0" encoding="utf-8"?>
<!-- Generator: Adobe Illustrator 16.0.4, SVG Export Plug-In . SVG Version: 6.00 Build 0)  -->
<!DOCTYPE svg PUBLIC "-//W3C//DTD SVG 1.1//EN" "http://www.w3.org/Graphics/SVG/1.1/DTD/svg11.dtd">
<svg version="1.1" id="Layer_1" xmlns="http://www.w3.org/2000/svg" xmlns:xlink="http://www.w3.org/1999/xlink" x="0px" y="0px"
	 width="75px" height="75px" viewBox="14.5 14.5 75 75" enable-background="new 14.5 14.5 75 75" xml:space="preserve">
<circle fill="#2A3740" cx="52" cy="52" r="35"/>
<path fill="#49EACE" d="M57.433,54.678h-2.718c-0.242-1.273-0.74-2.457-1.443-3.49l1.92-1.919c0.151-0.154,0.154-0.403,0-0.559
	l-1.904-1.899c-0.151-0.157-0.402-0.157-0.557,0l-1.919,1.917c-1.03-0.701-2.214-1.202-3.488-1.44v-2.717
	c0-0.218-0.176-0.393-0.396-0.393h-2.688c-0.217,0-0.395,0.175-0.395,0.393v2.717c-1.27,0.244-2.457,0.737-3.489,1.44l-1.919-1.917
	c-0.154-0.157-0.403-0.157-0.557,0l-1.899,1.899c-0.157,0.156-0.157,0.405,0,0.559l1.917,1.919c-0.706,1.033-1.204,2.217-1.443,3.49
	h-2.715c-0.219,0-0.398,0.177-0.398,0.394v2.688c0,0.217,0.179,0.395,0.398,0.395h2.715c0.239,1.272,0.737,2.457,1.443,3.492
	l-1.917,1.916c-0.157,0.153-0.157,0.403,0,0.557l1.899,1.902c0.156,0.155,0.403,0.155,0.557,0l1.919-1.917
	c1.033,0.703,2.217,1.199,3.489,1.441v2.717c0,0.218,0.18,0.396,0.395,0.396h2.688c0.219,0,0.396-0.178,0.396-0.396v-2.717
	c1.274-0.242,2.458-0.738,3.488-1.441l1.919,1.917c0.154,0.155,0.405,0.155,0.557,0l1.904-1.902c0.154-0.153,0.151-0.403,0-0.557
	l-1.92-1.916c0.703-1.032,1.201-2.22,1.443-3.492h2.718c0.218,0,0.393-0.178,0.393-0.395v-2.688
	C57.825,54.854,57.647,54.678,57.433,54.678z"/>
<circle fill="#FFFFFF" cx="45.584" cy="56.417" r="2.283"/>
<path fill="#49EACE" d="M70.777,43.187h-1.549c-0.136-0.727-0.417-1.401-0.817-1.989l1.092-1.092c0.088-0.087,0.088-0.229,0-0.315
	l-1.084-1.081c-0.089-0.088-0.229-0.088-0.318,0L67.01,39.8c-0.589-0.4-1.262-0.686-1.985-0.82v-1.548
	c0-0.125-0.103-0.225-0.224-0.225H63.27c-0.124,0-0.225,0.103-0.225,0.225v1.548c-0.726,0.137-1.398,0.42-1.984,0.82l-1.094-1.091
	c-0.088-0.088-0.229-0.088-0.317,0l-1.082,1.081c-0.085,0.086-0.085,0.228,0,0.315l1.092,1.092c-0.4,0.588-0.685,1.264-0.82,1.989
	h-1.545c-0.123,0-0.226,0.098-0.226,0.225v1.531c0,0.122,0.103,0.223,0.226,0.223h1.545c0.136,0.725,0.42,1.398,0.82,1.985
	l-1.092,1.091c-0.085,0.09-0.085,0.231,0,0.32l1.082,1.082c0.088,0.085,0.229,0.085,0.317,0l1.094-1.092
	c0.586,0.401,1.262,0.684,1.984,0.82v1.545c0,0.122,0.101,0.223,0.225,0.223h1.531c0.124,0,0.224-0.101,0.224-0.223v-1.545
	c0.727-0.136,1.399-0.419,1.985-0.82l1.091,1.092c0.089,0.087,0.229,0.087,0.318,0l1.084-1.082c0.088-0.088,0.088-0.229,0-0.32
	l-1.092-1.091c0.4-0.586,0.682-1.26,0.817-1.983h1.549c0.124,0,0.222-0.103,0.222-0.225v-1.531
	C71.002,43.284,70.901,43.187,70.777,43.187z"/>
<circle fill="#FFFFFF" cx="64.036" cy="44.174" r="1.3"/>
</svg>
