<?xml version="1.0" encoding="utf-8"?>
<!-- Generator: Adobe Illustrator 16.0.4, SVG Export Plug-In . SVG Version: 6.00 Build 0)  -->
<!DOCTYPE svg PUBLIC "-//W3C//DTD SVG 1.1//EN" "http://www.w3.org/Graphics/SVG/1.1/DTD/svg11.dtd">
<svg version="1.1" id="Layer_1" xmlns="http://www.w3.org/2000/svg" xmlns:xlink="http://www.w3.org/1999/xlink" x="0px" y="0px"
	 width="75px" height="75px" viewBox="14.5 14.5 75 75" enable-background="new 14.5 14.5 75 75" xml:space="preserve">
<circle fill="#2A3740" cx="52.199" cy="51.75" r="35"/>
<polygon fill="#FFFFFF" points="67.859,70.782 37.92,70.782 37.92,30.409 59.985,30.409 67.859,38.893 "/>
<polygon fill="#FFBE00" points="67.859,38.893 60.057,38.893 60.057,30.409 "/>
<rect x="37.914" y="45.143" fill="#FFBE00" width="30" height="12.857"/>
<g>
	<path fill="#FFFFFF" d="M45.251,49.265h1.724c1.537,0,2.126,0.813,2.126,1.76c0,1.206-0.875,1.913-2.126,1.913h-0.992v2.286h-0.732
		V49.265z M46.84,52.321c1.01,0,1.475-0.464,1.475-1.234c0-0.67-0.384-1.206-1.475-1.206h-0.856v2.438L46.84,52.321L46.84,52.321z"
		/>
	<path fill="#FFFFFF" d="M50.752,49.265h1.804c1.626,0,3.315,0.768,3.315,2.886c0,2-1.502,3.073-3.654,3.073h-1.465V49.265z
		 M52.128,54.607c2.171,0,2.958-1.055,2.958-2.376c0-1.429-0.92-2.35-2.654-2.35h-0.946v4.726H52.128z"/>
	<path fill="#FFFFFF" d="M57.674,49.265h3.431v0.616h-2.697V51.9h2.136v0.652h-2.136v2.671h-0.732L57.674,49.265L57.674,49.265z"/>
</g>
</svg>
