<?xml version="1.0" encoding="utf-8"?>
<!-- Generator: Adobe Illustrator 16.0.4, SVG Export Plug-In . SVG Version: 6.00 Build 0)  -->
<!DOCTYPE svg PUBLIC "-//W3C//DTD SVG 1.1//EN" "http://www.w3.org/Graphics/SVG/1.1/DTD/svg11.dtd">
<svg version="1.1" id="Layer_1" xmlns="http://www.w3.org/2000/svg" xmlns:xlink="http://www.w3.org/1999/xlink" x="0px" y="0px"
	 width="15px" height="15px" viewBox="5 5 15 15" enable-background="new 5 5 15 15" xml:space="preserve">
<g>
	<path fill="#21B4DB" d="M7.614,5C8.12,5,8.549,5.181,8.898,5.543c0.349,0.362,0.523,0.798,0.523,1.309
		c0,0.513-0.174,0.944-0.523,1.298C8.549,8.502,8.12,8.677,7.614,8.677c-0.506,0-0.929-0.174-1.27-0.527
		c-0.34-0.354-0.51-0.785-0.51-1.298c0-0.51,0.17-0.946,0.51-1.309C6.685,5.181,7.107,5,7.614,5z M6.148,20V9.763h2.933V20H6.148z
		 M13.428,9.763v0.475c0.561-0.281,1.188-0.405,1.887-0.371c0.7,0.035,1.328,0.194,1.886,0.476c0.594,0.336,1.069,0.82,1.427,1.457
		c0.359,0.633,0.539,1.287,0.539,1.956V20h-2.881v-6.241c0-0.143-0.053-0.311-0.157-0.504c-0.104-0.194-0.221-0.308-0.343-0.345
		c-0.297-0.157-0.584-0.22-0.863-0.186c-0.279,0.037-0.532,0.107-0.759,0.214c-0.262,0.122-0.507,0.29-0.733,0.502V20h-2.933V9.763
		H13.428z"/>
</g>
</svg>
