<?xml version="1.0" encoding="utf-8"?>
<!-- Generator: Adobe Illustrator 16.0.4, SVG Export Plug-In . SVG Version: 6.00 Build 0)  -->
<!DOCTYPE svg PUBLIC "-//W3C//DTD SVG 1.1//EN" "http://www.w3.org/Graphics/SVG/1.1/DTD/svg11.dtd">
<svg version="1.1" id="Layer_1" xmlns="http://www.w3.org/2000/svg" xmlns:xlink="http://www.w3.org/1999/xlink" x="0px" y="0px"
	 width="51px" height="51px" viewBox="0 0 51 51" enable-background="new 0 0 51 51" xml:space="preserve">
<rect fill="#21B4DB" width="51" height="51"/>
<g>
	<path fill="#FFFFFF" d="M33.758,31.233l-4.662-3.246c0.326-0.739,0.511-1.561,0.511-2.423c0-3.325-2.694-6.021-6.018-6.021
		c-3.327,0-6.023,2.696-6.023,6.021c0,3.325,2.696,6.021,6.023,6.021c1.513,0,2.89-0.562,3.949-1.485l4.723,3.289
		c0.387,0.268,1.035,0.004,1.447-0.592C34.123,32.203,34.145,31.502,33.758,31.233z M23.588,30.225
		c-2.575,0-4.663-2.086-4.663-4.661s2.088-4.661,4.663-4.661c2.572,0,4.66,2.086,4.66,4.661S26.16,30.225,23.588,30.225z"/>
</g>
</svg>
