<?xml version="1.0" encoding="utf-8"?>
<!-- Generator: Adobe Illustrator 16.0.4, SVG Export Plug-In . SVG Version: 6.00 Build 0)  -->
<!DOCTYPE svg PUBLIC "-//W3C//DTD SVG 1.1//EN" "http://www.w3.org/Graphics/SVG/1.1/DTD/svg11.dtd">
<svg version="1.1" id="Layer_1" xmlns="http://www.w3.org/2000/svg" xmlns:xlink="http://www.w3.org/1999/xlink" x="0px" y="0px"
	 width="15px" height="15px" viewBox="5 5 15 15" enable-background="new 5 5 15 15" xml:space="preserve">
<g>
	<path fill="#21B4DB" d="M20.039,7.791c-0.41,0.602-0.923,1.147-1.538,1.63v0.363c0,1.034-0.19,2.081-0.575,3.141
		c-0.386,1.061-0.95,2.022-1.693,2.874c-0.74,0.854-1.657,1.549-2.739,2.082c-1.085,0.537-2.335,0.803-3.754,0.803
		c-0.871,0-1.704-0.125-2.498-0.373C6.446,18.059,5.7,17.707,5,17.26c0.119,0.02,0.239,0.025,0.358,0.025c0.12,0,0.25,0,0.385,0
		c1.468,0,2.743-0.439,3.817-1.318c-0.684-0.018-1.286-0.229-1.807-0.635c-0.521-0.404-0.874-0.92-1.063-1.539
		c0.206,0.053,0.394,0.076,0.564,0.076c0.154,0,0.292-0.008,0.423-0.023c0.127-0.02,0.26-0.044,0.396-0.079
		c-0.716-0.155-1.31-0.513-1.779-1.074s-0.705-1.221-0.705-1.98v-0.024c0.206,0.103,0.423,0.19,0.653,0.261
		c0.231,0.067,0.491,0.103,0.781,0.103c-0.442-0.277-0.787-0.638-1.022-1.088C5.76,9.516,5.64,9.014,5.64,8.46
		c0-0.55,0.138-1.077,0.412-1.576C6.82,7.85,7.75,8.621,8.844,9.198c1.093,0.578,2.278,0.893,3.562,0.944
		c-0.051-0.207-0.079-0.429-0.079-0.673c0-0.429,0.082-0.841,0.244-1.229c0.163-0.388,0.385-0.724,0.665-1.009
		c0.282-0.285,0.607-0.507,0.974-0.673c0.366-0.163,0.766-0.244,1.193-0.244c0.462,0,0.879,0.089,1.254,0.271
		c0.377,0.182,0.708,0.417,1.001,0.71c0.342-0.051,0.684-0.146,1.022-0.285c0.342-0.139,0.659-0.285,0.949-0.439
		c-0.273,0.724-0.727,1.294-1.359,1.709c0.326-0.036,0.633-0.095,0.923-0.182C19.482,8.016,19.765,7.91,20.039,7.791z"/>
</g>
</svg>
