<?xml version="1.0" encoding="utf-8"?>
<!-- Generator: Adobe Illustrator 16.0.4, SVG Export Plug-In . SVG Version: 6.00 Build 0)  -->
<!DOCTYPE svg PUBLIC "-//W3C//DTD SVG 1.1//EN" "http://www.w3.org/Graphics/SVG/1.1/DTD/svg11.dtd">
<svg version="1.1" id="Layer_1" xmlns="http://www.w3.org/2000/svg" xmlns:xlink="http://www.w3.org/1999/xlink" x="0px" y="0px"
	 width="34px" height="45px" viewBox="0 0 34 45" enable-background="new 0 0 34 45" xml:space="preserve">
<polygon fill="#2C5897" points="33.14,45 0,45 0,-0.102 24.422,-0.102 33.14,9.376 "/>
<polygon fill="#4981C2" points="33.14,9.376 24.422,9.376 24.422,-0.102 "/>
<path fill="#FFFFFF" d="M27,37.645C27,37.841,26.841,38,26.645,38H6.355C6.159,38,6,37.841,6,37.645v-0.289
	C6,37.159,6.159,37,6.355,37h20.289C26.841,37,27,37.159,27,37.355V37.645z"/>
<path fill="#FFFFFF" d="M27,17.646C27,17.841,26.841,18,26.645,18H6.355C6.159,18,6,17.841,6,17.646v-0.291
	C6,17.159,6.159,17,6.355,17h20.289C26.841,17,27,17.159,27,17.354V17.646z"/>
<path fill="#FFFFFF" d="M27,23.646C27,23.841,26.841,24,26.645,24H6.355C6.159,24,6,23.841,6,23.646v-0.291
	C6,23.159,6.159,23,6.355,23h20.289C26.841,23,27,23.159,27,23.354V23.646z"/>
<path fill="#FFFFFF" d="M27,30.644C27,30.841,26.841,31,26.645,31H6.355C6.159,31,6,30.841,6,30.644v-0.287
	C6,30.159,6.159,30,6.355,30h20.289C26.841,30,27,30.159,27,30.356V30.644z"/>
</svg>
