<?xml version="1.0" encoding="utf-8"?>
<!-- Generator: Adobe Illustrator 16.0.0, SVG Export Plug-In . SVG Version: 6.00 Build 0)  -->
<!DOCTYPE svg PUBLIC "-//W3C//DTD SVG 1.1//EN" "http://www.w3.org/Graphics/SVG/1.1/DTD/svg11.dtd">
<svg version="1.1" id="Layer_1" xmlns="http://www.w3.org/2000/svg" xmlns:xlink="http://www.w3.org/1999/xlink" x="0px" y="0px"
	 width="162px" height="72px" viewBox="0 0 162 72" enable-background="new 0 0 162 72" xml:space="preserve">
<g>
	<circle fill="#23B4DB" cx="137.021" cy="53.43" r="3.074"/>
</g>
<g>
	<path fill="#FFFFFF" d="M28.822,52.016h-0.148l-9.406-13.797V59.1h-2.842V33.275h2.952l9.407,14.092l9.407-14.092h2.951V59.1
		h-2.914V38.182L28.822,52.016z"/>
	<path fill="#FFFFFF" d="M53.537,33.275V59.1h-2.914V33.275H53.537z"/>
	<path fill="#FFFFFF" d="M71.98,59.1h-8.964V33.275h8.964c8.116,0,13.689,5.57,13.689,12.875S80.097,59.1,71.98,59.1z M71.98,35.969
		h-6.05v20.438h6.05c6.53,0,10.667-4.428,10.667-10.183S78.511,35.969,71.98,35.969z"/>
	<path fill="#FFFFFF" d="M96.92,33.275V59.1h-2.915V33.275H96.92z"/>
	<path fill="#FFFFFF" d="M130.452,59.1h-3.136l-3.025-6.825h-14.055l-3.062,6.825h-2.988l11.768-26.009h2.73L130.452,59.1z
		 M117.283,36.484l-5.903,13.17h11.767L117.283,36.484z"/>
</g>
<g>
	<g>
		<path fill="#FFFFFF" d="M98.113,27.38c2.974-9.568,11.912-16.537,22.443-16.537c12.957,0,23.498,10.541,23.498,23.497
			c0,4.417-1.228,8.552-3.355,12.086c0.311,0.112,0.623,0.224,0.935,0.337c2.157-3.646,3.399-7.891,3.399-12.423
			c0-13.496-10.98-24.476-24.477-24.476c-10.898,0-20.151,7.161-23.311,17.025C97.533,27.055,97.824,27.217,98.113,27.38z"/>
	</g>
</g>
</svg>
